<svg xmlns="http://www.w3.org/2000/svg" xmlns:xlink="http://www.w3.org/1999/xlink" width="158" height="70" viewBox="0 0 158 70">
  <defs>
    <clipPath id="clip-logo">
      <rect width="158" height="70"/>
    </clipPath>
  </defs>
  <g id="logo" clip-path="url(#clip-logo)">
    <g id="图层_x0020_1" transform="translate(-4465.101 -7021.759)">
      <path id="路径_1" data-name="路径 1" d="M5270.271,7832.159a4.105,4.105,0,0,1-.282.4c-.2.286-.4.528-.564.729s-.282.383-.4.553c-.081.166-.2.331-.283.492s-.2.331-.322.521c-.081.173-.2.37-.323.592-.081.227-.2.436-.283.634a18.363,18.363,0,0,0-.887,1.951c-.323.795-.766,1.593-.565,1.876.081.121.162.182.6.068.081-.021.162-.049.243-.077a.993.993,0,0,0,.2-.08,3.124,3.124,0,0,0,.887-.6q.423-.394.847-.811c0-.032.04-.053.121-.053a.243.243,0,0,1,.242.129.374.374,0,0,1,.121.206c0,.04-.081.129-.2.271-.08.137-.242.286-.363.443-.161.161-.323.314-.444.455l-.121.117h0v0h0l-.161.182a5.762,5.762,0,0,1-.645.54,1.332,1.332,0,0,1-.646.359,2.8,2.8,0,0,1-.847.129.851.851,0,0,1-.363-.085.977.977,0,0,1-.282-.209c-.04-.081-.121-.166-.121-.259a.644.644,0,0,1-.081-.241,1.218,1.218,0,0,1,.04-.278c.041-.17.041-.348.081-.54a2.7,2.7,0,0,0,.081-.541,1.173,1.173,0,0,0,.041-.274v-.1a8.863,8.863,0,0,0-.645.637,6.192,6.192,0,0,1-.726.638,3.194,3.194,0,0,1-.484.318,2.24,2.24,0,0,1-.483.271c-.081.023-.162.052-.243.08a1.271,1.271,0,0,1-.241.04,1.2,1.2,0,0,1-.4-.084,1.934,1.934,0,0,1-.363-.226,3.6,3.6,0,0,1-.282-.319,1.583,1.583,0,0,1-.2-.362,1.783,1.783,0,0,1-.081-.383v-.314a3.167,3.167,0,0,1,.041-.605,1.3,1.3,0,0,1,.363-.637,3.285,3.285,0,0,1,.443-.448,2.3,2.3,0,0,1,.484-.371c.041-.036.161-.1.323-.218.2-.108.4-.222.645-.334a6.616,6.616,0,0,1,.646-.308,1.625,1.625,0,0,1,.524-.137.451.451,0,0,1,.282.085,1.68,1.68,0,0,1,.242.218c.04.085.081.173.121.271a.717.717,0,0,1,.081.249.376.376,0,0,1-.162.308,1.994,1.994,0,0,0-.323.173,5.477,5.477,0,0,0-.726.443,10.5,10.5,0,0,0-.847.678,9.776,9.776,0,0,0-.766.774,2.213,2.213,0,0,0-.484.742c0,.048.081.072.161.072a1.252,1.252,0,0,0,.484-.141,4.223,4.223,0,0,0,.564-.34c.2-.133.363-.258.524-.383s.282-.229.363-.3a2.971,2.971,0,0,0,.444-.412,3.957,3.957,0,0,0,.524-.548,5.41,5.41,0,0,0,.484-.6,2.513,2.513,0,0,0,.323-.581c.282-.7.565-1.4.847-2.085a21.459,21.459,0,0,1,.928-1.936c.04-.125.121-.274.2-.456s.121-.492.322-.516C5268.94,7831.578,5270.755,7831.179,5270.271,7832.159Zm3.549,6.687a.7.7,0,0,1-.484-.194.736.736,0,0,1-.2-.524.756.756,0,0,1,.2-.528.71.71,0,0,1,.484-.188.756.756,0,0,1,.524.213.616.616,0,0,1,.2.5.6.6,0,0,1-.2.524.8.8,0,0,1-.524.194Zm28.833-1.94a1.95,1.95,0,0,1-.081.642,3.058,3.058,0,0,1-.242.774,5.6,5.6,0,0,1-.323.778c-.161.254-.282.468-.4.637l-.242.352a3.017,3.017,0,0,0-.282.326,1.847,1.847,0,0,1-.283.241.619.619,0,0,1-.323.1.517.517,0,0,1-.2-.045,1.169,1.169,0,0,1-.2-.1c-.081-.04-.122-.08-.2-.121a1.535,1.535,0,0,1-.161-.1,1.65,1.65,0,0,1-.484-.572,1.992,1.992,0,0,1-.242-.649c-.041-.226-.041-.452-.081-.682,0-.229-.041-.443-.041-.649a4.4,4.4,0,0,0-.685.734c-.2.277-.444.552-.646.818a7.861,7.861,0,0,1-.726.705,1.871,1.871,0,0,1-.807.392c-.04.008-.08.021-.161.037-.041.016-.121.031-.161.048a1.36,1.36,0,0,0-.162.044.4.4,0,0,1-.121.017.268.268,0,0,1-.2-.068.426.426,0,0,1-.162-.161c-.04-.068-.081-.138-.121-.21v-.2a1.911,1.911,0,0,1,.121-.48,4.915,4.915,0,0,1,.282-.818c.121-.314.243-.638.4-.984.121-.343.282-.657.4-.943.162-.286.283-.521.4-.706s.2-.274.282-.274a.69.69,0,0,1,.2.036,1.071,1.071,0,0,1,.242.109,1.576,1.576,0,0,1,.242.186.538.538,0,0,1,.081.258l-.686,2.6c.04.017.08.02.08.012s.041-.016.041-.023a5.871,5.871,0,0,0,.686-.642c.2-.227.363-.452.564-.67.162-.214.323-.415.484-.6a2.286,2.286,0,0,1,.524-.464c0-.024.041-.036.121-.04s.121-.008.161-.008a2.379,2.379,0,0,1,.443.036.716.716,0,0,1,.323.1.267.267,0,0,1,.161.141.472.472,0,0,1,.081.166,3.345,3.345,0,0,0-.041.657v.754c0,.263.041.528.041.795.041.274.041.532.081.786a.632.632,0,0,0,.161-.226c.041-.113.121-.23.162-.363s.121-.262.161-.392a.778.778,0,0,1,.081-.33,2.811,2.811,0,0,0,.2-.718,6.809,6.809,0,0,0,.2-.867.638.638,0,0,0,.041-.274c.041-.093.041-.189.081-.278v-.169c.04-.1.04-.206.081-.314s.08-.21.121-.295.081-.129.161-.129a.226.226,0,0,1,.2.166c.081.112.121.209.2.3a1.559,1.559,0,0,1,.121.355,1.831,1.831,0,0,1,.04.455Zm21.091,3.436a1.632,1.632,0,0,0,1.331.319c.162-.024.081-.17.081-.174-.081-.072-.2-.112-.242-.2a1.307,1.307,0,0,1,.121-1.585c.121-.142.2-.295.322-.455.121-.219.686-.815.686-1.033.081-.613,0-.646-.4-1.028-.444-.451-.807-.108-1.17.439a6.071,6.071,0,0,0-.483.944,10.657,10.657,0,0,0-.4,1.028,3.481,3.481,0,0,0-.162.947,1.5,1.5,0,0,0,.323.795h0Zm3.428-5.811a.785.785,0,0,0-.041-.3.665.665,0,0,0-.121-.273.777.777,0,0,0-.282-.186.679.679,0,0,0-.363-.041l-.081.013a1.056,1.056,0,0,0-.4.12,2.218,2.218,0,0,0-.323.251,1.082,1.082,0,0,0-.2.33.656.656,0,0,0-.121.371.5.5,0,0,0,.242.553.842.842,0,0,0,.646.142,1.084,1.084,0,0,0,.322-.094.972.972,0,0,0,.323-.2,1.039,1.039,0,0,0,.283-.294.679.679,0,0,0,.121-.4Zm20,.718a.242.242,0,0,0-.081.169,1.115,1.115,0,0,1-.161.187,3.6,3.6,0,0,1-.6.459,3.154,3.154,0,0,1-.565.291,2.718,2.718,0,0,1-.564.169,3.7,3.7,0,0,1-.524.077h0c-.161.023-.323.241-.323.241l-.041.028v.032l-.04.032v.028l-.041.016a6.614,6.614,0,0,0-1.129,2.537.289.289,0,0,0,.081.21.4.4,0,0,0,.2.081,1.261,1.261,0,0,0,.242.012c.081,0,.162-.009.2-.009a2.055,2.055,0,0,0,.6-.108,1.615,1.615,0,0,0,.645-.307,5.879,5.879,0,0,0,.6-.455.749.749,0,0,1,.484-.206c.161,0,.282.036.282.108a.472.472,0,0,1,.04.234.375.375,0,0,1-.04.226.246.246,0,0,1-.081.149.742.742,0,0,1-.161.146,1.169,1.169,0,0,0-.2.213,2.221,2.221,0,0,1-.645.456,7.008,7.008,0,0,1-.847.355,6.634,6.634,0,0,1-.888.233,3.815,3.815,0,0,1-.766.085,1.718,1.718,0,0,1-.283-.024.782.782,0,0,1-.323-.1.437.437,0,0,1-.242-.218.943.943,0,0,1-.161-.376l1.371-3.5c0-.017,0-.036-.041-.06-.162-.021-.283-.037-.484-.049a1.164,1.164,0,0,1-.444-.161c-.081-.04-.121-.113-.2-.21s-.121-.206-.2-.318c-.041-.113-.081-.23-.121-.348a.841.841,0,0,1-.041-.29c0-.121,0-.2.081-.222a.533.533,0,0,1,.243-.036l1.854.182a2.515,2.515,0,0,0,.2-.537c.081-.189.161-.366.242-.527.162-.319.282-.666.484-1.045.161-.375.323-.733.484-1.081a2.178,2.178,0,0,0,.2-.379,2.4,2.4,0,0,1,.282-.447,1.406,1.406,0,0,1,.323-.367.757.757,0,0,1,.443-.153,1.236,1.236,0,0,1,.6.169.615.615,0,0,1,.282.492,1,1,0,0,1-.121.4,3.227,3.227,0,0,1-.282.509c-.121.173-.2.33-.283.468a1.264,1.264,0,0,0-.161.282c-.242.366-.443.733-.645,1.1-.2.314-.4.625-.565.928v.02l-.041,0c-.08.156.041.205.081.209l1.452-.145a1.12,1.12,0,0,1,.162.012.49.49,0,0,1,.161.125Zm-38.31,2.638a2.982,2.982,0,0,0-.162.564c-.2.742-.927,2.464.807,2.617a11.971,11.971,0,0,0,.283-1.21c.2-.7.4-1.432.6-2.161a29.474,29.474,0,0,0,3.347-.617,23.422,23.422,0,0,0-.686,2.524c-.323,1.532,1.088,1.968,1.976.879.04-.024.08-.057.08-.085a.672.672,0,0,1-.322-.612,4.626,4.626,0,0,1,.08-1.064c.121-.5.242-1,.4-1.488.2-.593.4-1.174.645-1.747.242-.616.524-1.221.806-1.814.282-.556.605-1.1.928-1.612v-.024c-.807-.96-1.25-.633-1.694.072-.282.452-.524.924-.766,1.4-.282.569-.524,1.153-.767,1.742-.161.347-.282.722-.443,1.117a1.048,1.048,0,0,0-.363-.024c-.927.053-1.9.081-2.823.109.242-.75.524-1.48.807-2.17.2-.508,1.25-2.367.161-2.818a1.139,1.139,0,0,0-1.089.205c.4.2-.564,2.863-1.291,4.815-.524.012-1.048.028-1.533.048a.852.852,0,0,0-.282.04c-.081.024-.121.105-.081.243.162,1.108.807,1.137,1.372,1.072Zm10.363-1.613c-.4.125-1.169.714-1.169,1.04.081.138,1.048-.254,1.412-.625.282-.266.08-.508-.243-.415Zm-2.137.951a.29.29,0,0,0,.081-.148c.121-.182.2-.355.322-.513a3.291,3.291,0,0,1,.928-.782,2.08,2.08,0,0,1,1.008-.263,1.023,1.023,0,0,1,.887.4.7.7,0,0,1,.121.391c.121.754-.727,1.222-1.25,1.46a6.064,6.064,0,0,1-1.21.4.587.587,0,0,0-.484.641.562.562,0,0,0,.242.34,3.4,3.4,0,0,0,2.218.1,4.794,4.794,0,0,0,2.217-1.331.215.215,0,0,1,.242-.117c.081.036.121.174.121.266,0,.957-1.128,1.88-1.733,2.171a4.23,4.23,0,0,1-2.016.374,2.443,2.443,0,0,1-1.654-.733,1.563,1.563,0,0,1-.4-.892,3.425,3.425,0,0,1,.363-1.767Zm-26.454-.951c.323-.093.524.149.242.415-.363.371-1.331.763-1.411.625,0-.326.766-.915,1.169-1.04Zm-2.1.951a3.349,3.349,0,0,0-.4,1.767,1.556,1.556,0,0,0,.4.892,2.367,2.367,0,0,0,1.653.733,4.219,4.219,0,0,0,2.016-.375c.6-.29,1.734-1.213,1.734-2.17,0-.092-.04-.229-.121-.266-.121-.04-.2.057-.282.117a4.481,4.481,0,0,1-2.178,1.331,3.4,3.4,0,0,1-2.218-.1.564.564,0,0,1-.242-.34.587.587,0,0,1,.524-.641,6.65,6.65,0,0,0,1.169-.4c.564-.238,1.371-.706,1.291-1.46a1.382,1.382,0,0,0-.162-.391.981.981,0,0,0-.887-.4,2.083,2.083,0,0,0-1.008.263,2.671,2.671,0,0,0-.887.782,2.8,2.8,0,0,0-.363.513c0,.048-.04.1-.04.148Zm-31.9-.951c-.4.125-1.169.714-1.169,1.04.081.138,1.049-.254,1.412-.625.282-.266.081-.508-.242-.415Zm-2.1.951c0-.053.04-.1.04-.148.121-.182.2-.355.323-.513a2.809,2.809,0,0,1,.927-.782,2.087,2.087,0,0,1,1.009-.263,1.023,1.023,0,0,1,.887.4.692.692,0,0,1,.121.391c.121.754-.726,1.222-1.25,1.46a6.08,6.08,0,0,1-1.209.4.587.587,0,0,0-.484.641.557.557,0,0,0,.241.34,3.4,3.4,0,0,0,2.218.1,4.482,4.482,0,0,0,2.178-1.331c.08-.061.162-.157.282-.117.081.036.121.174.121.266,0,.957-1.13,1.88-1.734,2.171a4.23,4.23,0,0,1-2.016.374,2.367,2.367,0,0,1-1.653-.733,1.944,1.944,0,0,1-.444-.892,3.7,3.7,0,0,1,.444-1.767h0Zm-5.082-.951c-.444.125-1.21.714-1.169,1.04.041.138,1.048-.254,1.371-.625.282-.266.121-.508-.2-.415Zm-2.137.951c.04-.053.04-.1.08-.148a2.618,2.618,0,0,1,.323-.513,2.681,2.681,0,0,1,.887-.782,2.209,2.209,0,0,1,1.008-.263.981.981,0,0,1,.887.4,1.353,1.353,0,0,1,.161.391c.081.754-.726,1.222-1.291,1.46a6.636,6.636,0,0,1-1.169.4.558.558,0,0,0-.484.641.4.4,0,0,0,.2.34,3.4,3.4,0,0,0,2.218.1,4.8,4.8,0,0,0,2.218-1.331c.04-.061.161-.157.242-.117s.121.174.161.266a3.108,3.108,0,0,1-1.774,2.171,4.231,4.231,0,0,1-2.017.374,2.442,2.442,0,0,1-1.653-.733,1.553,1.553,0,0,1-.4-.892,3.34,3.34,0,0,1,.4-1.767Zm35.527-4.689A24.138,24.138,0,0,0,5284.3,7839c.081-.431.2-.906.323-1.427l.161-.541a16.572,16.572,0,0,1,.605-1.77c.2-.594.443-1.146.645-1.658.242-.512.484-.955.686-1.339a2.264,2.264,0,0,1,.6-.79c.04-.036.121-.016.282.057a2.52,2.52,0,0,1,.484.294,2.85,2.85,0,0,1,.4.4c.121.142.161.258.081.347a12.086,12.086,0,0,0-.806,1.532c-.242.565-.484,1.125-.686,1.694a15.782,15.782,0,0,0-.524,1.633,7.457,7.457,0,0,0-.323,1.383,2.753,2.753,0,0,0-.081.936c0,.227.081.318.2.287.2-.057.282-.024.242.1a1.83,1.83,0,0,1-.242.443,3.487,3.487,0,0,1-.484.488q-.242.23-.363.229a1.145,1.145,0,0,1-.4-.093,3.262,3.262,0,0,1-.4-.222,1.288,1.288,0,0,1-.363-.25c-.121-.084-.162-.141-.162-.178a14.427,14.427,0,0,1-1.935-5.911c-.041-.6-.283-.42-.444.024a39.627,39.627,0,0,0-1.532,4.237q-.122.564-.242,1.013c-.081.3-.121.553-.161.758a1.968,1.968,0,0,0-.041.42.209.209,0,0,1-.242.133c-1.089-.089-.645-2.589-.444-3.319l.283-1.012a6.823,6.823,0,0,1,.363-1.21c.121-.4.282-.794.4-1.173s.283-.726.4-1.062a7.327,7.327,0,0,1,.4-.847.414.414,0,0,0,.041-.185.225.225,0,0,0-.162-.062,1.106,1.106,0,0,0-.161-.008c-.081,0-.121-.016-.121-.052-.041-.033-.041-.094.04-.178a.721.721,0,0,1,.242-.25,2.1,2.1,0,0,1,.4-.229,1.286,1.286,0,0,1,.484-.1,1.036,1.036,0,0,1,.4.129c.041.021.524.533.565.589s.081.1.121.146v.129Zm-45.892,5.723a7.016,7.016,0,0,1,3.064-1.227,1.734,1.734,0,0,0-.121-1.089,1.345,1.345,0,0,0-.282-.145,1.274,1.274,0,0,0-.323-.049,1.149,1.149,0,0,0-.564.182,4.85,4.85,0,0,0-.646.428,5.6,5.6,0,0,0-.645.532,6.113,6.113,0,0,1-.605.471h0v.013l-.04.009v-1.521c0-.267.04-.483-.041-.517l-1.331.161c-.322.089-.363.477-.363.871v.354c0,.13.041.259.041.388a1.224,1.224,0,0,1,.081.363,2.683,2.683,0,0,0,.081.282.564.564,0,0,0,.08.218.587.587,0,0,1,.081.246.571.571,0,0,1,.081.213.209.209,0,0,1,.04.117.587.587,0,0,1-.161.21c-.121.121-.282.282-.443.472s-.363.407-.565.646-.4.479-.6.729c-.161.25-.323.5-.443.734-.2.451-.242.593.162.911l.847.379c.242-.061.323-.487.323-.7a8.792,8.792,0,0,1,1.29-2.649c.081.117.162.233.242.351.162.166.283.311.444.448a3.485,3.485,0,0,0,.484.338,1.117,1.117,0,0,0,.443.146c.041.009.081.021.122.032a.429.429,0,0,0,.121.017h.161a1,1,0,0,0,.2-.033c.4-.108.645-.729.484-.923,0-.04-.081-.049-.121-.049,0,0-.041,0-.081,0s-.081.013-.121.024l-.04.012h0c-.162.045-.847.121-1.331-1.169v-.024h0v-.008c0-.068-.04-.137,0-.2Zm93.155,3.407a10.888,10.888,0,0,0-2.057.907c-.242.133-.444.282-.686.447a2.2,2.2,0,0,0-.484.561c-.282.5-.323,1.19.4,1.19a1.453,1.453,0,0,0,.685-.166,2.085,2.085,0,0,0,.6-.455,6.589,6.589,0,0,0,.484-.662c.322-.6.685-1.226,1.048-1.822Zm3.952-1.831a.547.547,0,0,1-.161.109c-.081.061-.2.124-.323.2a14.74,14.74,0,0,1-1.774.943c-.887,1.612-2.984,5.919-5.4,4.544a.974.974,0,0,1-.363-.3.758.758,0,0,1-.2-.384,1.668,1.668,0,0,1-.08-.447,2.173,2.173,0,0,1,.242-1.021,2.833,2.833,0,0,1,.6-.851,4.2,4.2,0,0,1,.847-.689,8.026,8.026,0,0,1,1.008-.541,13.685,13.685,0,0,1,1.936-.714c.041-.031.081-.063.081-.088.04-.072.08-.153.121-.246s.08-.17.12-.246c.041-.105.121-.214.162-.327s.081-.229.121-.347l.242-.661v-.048c0-.017-.04-.024-.081-.024a1.038,1.038,0,0,0-.282.121c-.162.084-.363.185-.564.314-.242.124-.484.262-.766.4s-.564.278-.807.407a5.262,5.262,0,0,1-.726.311,1.5,1.5,0,0,1-.444.125.477.477,0,0,1-.363-.13.653.653,0,0,1-.242-.3c-.041-.113-.081-.229-.121-.352v-.286a1.133,1.133,0,0,1,.162-.584,2.956,2.956,0,0,1,.4-.63,6.382,6.382,0,0,1,.565-.621,7,7,0,0,1,.645-.54,4.43,4.43,0,0,1,.6-.4,1.362,1.362,0,0,1,.444-.214c.04-.012.121-.023.161-.036.081-.02.161-.036.242-.052a1.079,1.079,0,0,1,.161-.037l.121-.012a.81.81,0,0,1,.605.25.869.869,0,0,1,.282.585,1.266,1.266,0,0,1-.081.25.408.408,0,0,1-.242.254,3.005,3.005,0,0,1-.4.133,2.65,2.65,0,0,0-.524.161,3.342,3.342,0,0,0-.363.214c-.121.094-.242.2-.4.318q-.182.176-.363.376a1.864,1.864,0,0,0-.2.379v.023h.04l3.227-1.165a.772.772,0,0,1,.242.024,1.254,1.254,0,0,1,.283.116,1.532,1.532,0,0,1,.242.2.272.272,0,0,1,0,.25l-.363,1.375a10.654,10.654,0,0,0,1.25-.705,3.925,3.925,0,0,0,.564-.553,2.757,2.757,0,0,0,.484-.557,3.152,3.152,0,0,1,.2-.545c.161-.358.282-.689.4-1s.242-.572.323-.8c.121-.222.161-.371.2-.436.161-.343.322-.7.524-1.061q.242-.545.6-1.234c.081-.182.2-.395.323-.646s.242-.476.323-.678a1.444,1.444,0,0,0,.161-.27c.081-.117.161-.229.242-.339a3.273,3.273,0,0,1,.282-.29.535.535,0,0,1,.323-.121h.08a.514.514,0,0,1,.2.068,1.184,1.184,0,0,0,.2.145c.08.057.121.105.2.162.041.053.081.089.081.1,0,.041.041.089.041.146a.225.225,0,0,1,.041.148,1.76,1.76,0,0,1-.162.561c-.121.219-.242.428-.363.642-.162.214-.322.419-.484.617a4.957,4.957,0,0,0-.363.5c-.2.262-.4.553-.646.871q-.3.478-.6.944a10.061,10.061,0,0,0-.565.927c-.2.379-.363.767-.524,1.157v.037a4.071,4.071,0,0,1,.444-.319c.161-.1.322-.2.484-.286a3.159,3.159,0,0,1,.524-.21,1.546,1.546,0,0,1,.484-.08h.081a.788.788,0,0,1,.484.186,3.24,3.24,0,0,1,.322.451c.08.182.161.379.242.6.041.217.081.419.121.612a2.694,2.694,0,0,1,.081.484v.233c.041.016.041.024.041.016s0,0,.041,0a.632.632,0,0,0,.363-.125,2.813,2.813,0,0,0,.4-.291c.121-.117.242-.233.363-.354s.2-.227.282-.311c0-.032.081-.049.161-.049a.4.4,0,0,1,.242.068c.081.045.081.121.081.227a.394.394,0,0,1-.081.233,1.745,1.745,0,0,1-.121.295.644.644,0,0,1-.2.262c-.081.1-.161.189-.242.282-.121.1-.242.186-.323.267-.121.08-.2.145-.282.193-.121.068-.243.137-.4.21a4.757,4.757,0,0,1-1.25.479c-.081.017-.162.028-.242.044s-.121.017-.121.017a.313.313,0,0,1-.161-.049,1,1,0,0,0-.161-.116c-.041-.045-.081-.093-.121-.146a.209.209,0,0,1-.041-.141v-1.464a1.966,1.966,0,0,0,.041-.488c-.041-.165-.041-.323-.081-.472-.081-.367-.484-.274-.524-.271a1.265,1.265,0,0,0-.2.178,2.977,2.977,0,0,0-.444.516,4.559,4.559,0,0,0-.4.565c-.121.185-.242.334-.323.439a2.091,2.091,0,0,0-.323.564c-.121.222-.242.432-.322.625-.041.02-.041.032-.041.048a.2.2,0,0,1-.121.028.28.28,0,0,1-.121-.064.5.5,0,0,1-.2-.157c0-.04-.041-.1-.041-.173s-.04-.13-.04-.174c0-.072.04-.161.04-.271Zm-100.05-7.469a.605.605,0,0,1-.121.355c-.121.112-.242.218-.363.311a2.315,2.315,0,0,1-.4.233,1.29,1.29,0,0,1-.323.105.267.267,0,0,0-.121.032c-.081.02-.121.04-.2.06s-.162.041-.242.058-.161.027-.2.036a2.135,2.135,0,0,0-.322.032c-.081.012-.162.02-.242.027a1.5,1.5,0,0,1-.2.021c-.08,0-.2.008-.363.017s-.322.016-.564.02-.243,0-.605,0l-1.492,2.187h2.218s.041,0,.121-.008c.04,0,.121,0,.2-.013.041,0,.121-.008.2-.012a.762.762,0,0,1,.081,0c.04,0,.081-.008.121-.012.08-.008.121-.016.2-.02l.162-.017c.041-.008.121-.017.121-.017a.732.732,0,0,1,.2.045.164.164,0,0,1,.122.165.489.489,0,0,1-.041.234c-.041.08-.121.157-.162.226-.08.072-.161.137-.242.2a.447.447,0,0,1-.2.142,3.6,3.6,0,0,1-.565.234c-.242.072-.483.137-.726.188s-.484.094-.726.126c-.282.027-.484.04-.645.04-.565,0-.807.112-1.412.072a3.611,3.611,0,0,0-.282.7,1.589,1.589,0,0,0-.081.745.545.545,0,0,0,.4.138,7.622,7.622,0,0,0,1.855-.186,16.961,16.961,0,0,0,1.774-.468c.081-.028.2-.073.363-.129a2.4,2.4,0,0,0,.4-.174,4.391,4.391,0,0,0,.645-.334,1.427,1.427,0,0,1,.646-.182.327.327,0,0,1,.242.064.331.331,0,0,1,.08.218,1.4,1.4,0,0,1-.322.8,4.491,4.491,0,0,1-.727.77,5.9,5.9,0,0,1-.847.617,2.344,2.344,0,0,1-.686.3,1.169,1.169,0,0,0-.2.068.948.948,0,0,1-.161.068c-.121.032-.283.065-.4.1-.161.032-.322.064-.443.093s-.283.052-.363.068a1.108,1.108,0,0,0-.161.024c-.041,0-.081,0-.161.012s-.161.013-.242.017-.161.013-.242.02a1.035,1.035,0,0,1-.121.013h-.564a2.2,2.2,0,0,1-1.372-.367,1.531,1.531,0,0,1-.484-1.291.212.212,0,0,1,.041-.12v-.234c0-.088.041-.182.041-.273a.578.578,0,0,0,.04-.242,2.459,2.459,0,0,0,.121-.3c.04-.121.081-.233.121-.338a.907.907,0,0,0,.081-.283.309.309,0,0,0,.04-.145v-.089c-.04-.017-.04-.04-.081-.072a1.094,1.094,0,0,1-.081-.392c-.041-.157-.081-.254-.081-.294a.706.706,0,0,1,.161-.432.58.58,0,0,1,.4-.162c.04,0,.081,0,.121.009a1.593,1.593,0,0,1,.162.028l1.331-2.44a1.2,1.2,0,0,1-.283-.411,2.05,2.05,0,0,1-.08-.4.338.338,0,0,1,.2-.342,2.194,2.194,0,0,1,.484-.121l4.92-.024a1.082,1.082,0,0,1,.161.016.818.818,0,0,1,.162.057.832.832,0,0,1,.162.1.175.175,0,0,1,.04.138h0Zm11.614,6.146a.708.708,0,0,1-.041.233,3.39,3.39,0,0,1-.121.319,1.608,1.608,0,0,1-.524.729,3.718,3.718,0,0,1-.807.521,4.392,4.392,0,0,1-.887.314,3.829,3.829,0,0,1-.766.1h-.242a.732.732,0,0,1-.2-.044c-.081-.028-.2-.061-.282-.1s-.2-.076-.283-.113a1.224,1.224,0,0,1-.162-.089,1.486,1.486,0,0,1-.242-.233c-.081-.1-.121-.206-.2-.314-.04-.109-.08-.223-.12-.331a.969.969,0,0,1-.081-.3,2.58,2.58,0,0,1,.2-.92,7.808,7.808,0,0,1,.525-.895c.242-.286.484-.553.726-.8a7.96,7.96,0,0,1,.847-.657,4.226,4.226,0,0,1,.847-.439,1.726,1.726,0,0,1,.686-.161,1.359,1.359,0,0,1,.322.048,1.235,1.235,0,0,1,.282.149.638.638,0,0,1,.2.246.881.881,0,0,1,.08.343.649.649,0,0,1-.121.363,1.216,1.216,0,0,1-.242.318,1.687,1.687,0,0,1-.323.226.686.686,0,0,1-.322.085.641.641,0,0,1-.2-.049,1.135,1.135,0,0,0-.2-.1.658.658,0,0,1-.162-.105c-.081-.031-.081-.048-.081-.048a1.342,1.342,0,0,0-.686.258,6.247,6.247,0,0,0-.767.625,4.521,4.521,0,0,0-.6.754,1.1,1.1,0,0,0-.282.646.279.279,0,0,0,.242.105c.081,0,.2,0,.282,0h.363a2.645,2.645,0,0,0,.323-.04c.161-.029.322-.061.484-.093a6.64,6.64,0,0,0,.686-.174c.282-.072.524-.146.766-.218.04-.016.121-.044.2-.081s.2-.072.282-.108.162-.073.2-.1a.551.551,0,0,1,.161-.045h.2c.041.024.041.085.041.174Z" transform="translate(-724.315 -762.573)" fill="#f26309" fill-rule="evenodd"/>
      <path id="路径_2" data-name="路径 2" d="M4610.519,7061.17h-18.832a2.183,2.183,0,0,1-1.492-.613l-4.113-4.1a2.136,2.136,0,0,1-.686-1.584V7029.76h7.863v23.99a.815.815,0,0,0,.807.822h16.453Zm-55.247-31.41a2.222,2.222,0,0,0-1.533.608l-4.113,4.122a2.275,2.275,0,0,0-.686,1.564v18.82a2.447,2.447,0,0,0,.767,1.646l4.032,4.036a2.208,2.208,0,0,0,1.533.613h18.792a2.041,2.041,0,0,0,1.492-.613l4.073-4.064a2.082,2.082,0,0,0,.726-1.617V7042.5h-18.026v6.593h10.2v4.658a.824.824,0,0,1-.847.822H4557.65a.824.824,0,0,1-.847-.822v-16.575a.826.826,0,0,1,.847-.822h14.034a.827.827,0,0,1,.847.822v2.666h7.823v-3.786a2.152,2.152,0,0,0-.686-1.594l-4.113-4.093a2.053,2.053,0,0,0-1.492-.608Zm-40.851,0h7.9l13.751,18.453V7029.76h7.864v31.41h-7.9l-13.751-18.458v18.458h-7.864Zm-12.9,0h7.864v31.41h-7.864Zm-28.551,24.813h14.88a.815.815,0,0,0,.807-.822v-16.575a.818.818,0,0,0-.807-.822h-14.88Zm-7.864-24.812h25.083a2.221,2.221,0,0,1,1.532.608l4.073,4.093a2.186,2.186,0,0,1,.726,1.593v18.82a2.124,2.124,0,0,1-.766,1.63l-4.033,4.053a2.208,2.208,0,0,1-1.532.613H4465.1v-31.41Zm150.137,0h7.863v31.41h-7.863Z" transform="translate(0 0)" fill="#1a1a1a" fill-rule="evenodd"/>
    </g>
  </g>
</svg>
